HIERARCHY
ROOT Hips
{
	OFFSET 0.000000 0.000000 0.000000
	CHANNELS 6 Xposition Yposition Zposition Zrotation Yrotation Xrotation 
	JOINT LHipJoint
	{
		OFFSET 0.000000 0.000000 0.000000
		CHANNELS 3 Zrotation Yrotation Xrotation
		JOINT LeftUpLeg
		{
			OFFSET 1.363060 -1.794630 0.839290
			CHANNELS 3 Zrotation Yrotation Xrotation
			JOINT LeftLeg
			{
				OFFSET 2.448110 -6.726130 0.000000
				CHANNELS 3 Zrotation Yrotation Xrotation
				JOINT LeftFoot
				{
					OFFSET 2.562200 -7.039590 0.000000
					CHANNELS 3 Zrotation Yrotation Xrotation
					JOINT LeftToeBase
					{
						OFFSET 0.157640 -0.433110 2.322550
						CHANNELS 3 Zrotation Yrotation Xrotation
						End Site
						{
							OFFSET 0.000000 0.000000 0.000000
						}
					}
				}
			}
		}
	}
	JOINT RHipJoint
	{
		OFFSET 0.000000 0.000000 0.000000
		CHANNELS 3 Zrotation Yrotation Xrotation
		JOINT RightUpLeg
		{
			OFFSET -1.305520 -1.794630 0.839290
			CHANNELS 3 Zrotation Yrotation Xrotation
			JOINT RightLeg
			{
				OFFSET -2.542530 -6.985550 0.000000
				CHANNELS 3 Zrotation Yrotation Xrotation
				JOINT RightFoot
				{
					OFFSET -2.568260 -7.056230 0.000000
					CHANNELS 3 Zrotation Yrotation Xrotation
					JOINT RightToeBase
					{
						OFFSET -0.164730 -0.452590 2.363150
						CHANNELS 3 Zrotation Yrotation Xrotation
						End Site
						{
							OFFSET 0.000000 0.000000 0.000000
						}
					}
				}
			}
		}
	}
	JOINT LowerBack
	{
		OFFSET 0.000000 0.000000 0.000000
		CHANNELS 3 Zrotation Yrotation Xrotation
		JOINT Spine
		{
			OFFSET 0.028270 2.035590 -0.193380
			CHANNELS 3 Zrotation Yrotation Xrotation
			JOINT Spine1
			{
				OFFSET 0.056720 2.048850 -0.042750
				CHANNELS 3 Zrotation Yrotation Xrotation
				JOINT Neck
				{
					OFFSET 0.000000 0.000000 0.000000
					CHANNELS 3 Zrotation Yrotation Xrotation
					JOINT Neck1
					{
						OFFSET -0.054170 1.746240 0.172020
						CHANNELS 3 Zrotation Yrotation Xrotation
						JOINT Head
						{
							OFFSET 0.104070 1.761360 -0.123970
							CHANNELS 3 Zrotation Yrotation Xrotation
							End Site
							{
								OFFSET 0.000000 0.000000 0.000000
							}
						}
					}
				}
				JOINT LeftShoulder
				{
					OFFSET 0.000000 0.000000 0.000000
					CHANNELS 3 Zrotation Yrotation Xrotation
					JOINT LeftArm
					{
						OFFSET 3.362410 1.200890 -0.311210
						CHANNELS 3 Zrotation Yrotation Xrotation
						JOINT LeftForeArm
						{
							OFFSET 4.983000 -0.000000 -0.000000
							CHANNELS 3 Zrotation Yrotation Xrotation
							JOINT LeftHand
							{
								OFFSET 3.483560 -0.000000 -0.000000
								CHANNELS 3 Zrotation Yrotation Xrotation
								JOINT LeftFingerBase
								{
									OFFSET 0.000000 0.000000 0.000000
									CHANNELS 3 Zrotation Yrotation Xrotation
									JOINT LeftHandIndex1
									{
										OFFSET 0.715260 -0.000000 -0.000000
										CHANNELS 3 Zrotation Yrotation Xrotation
										End Site
										{
											OFFSET 0.000000 0.000000 0.000000
										}
									}
								}
								JOINT LThumb
								{
									OFFSET 0.000000 0.000000 0.000000
									CHANNELS 3 Zrotation Yrotation Xrotation
									End Site
									{
										OFFSET 0.000000 0.000000 0.000000
									}
								}
							}
						}
					}
				}
				JOINT RightShoulder
				{
					OFFSET 0.000000 0.000000 0.000000
					CHANNELS 3 Zrotation Yrotation Xrotation
					JOINT RightArm
					{
						OFFSET -3.136600 1.374050 -0.404650
						CHANNELS 3 Zrotation Yrotation Xrotation
						JOINT RightForeArm
						{
							OFFSET -5.241900 -0.000000 -0.000000
							CHANNELS 3 Zrotation Yrotation Xrotation
							JOINT RightHand
							{
								OFFSET -3.444170 -0.000000 -0.000000
								CHANNELS 3 Zrotation Yrotation Xrotation
								JOINT RightFingerBase
								{
									OFFSET 0.000000 0.000000 0.000000
									CHANNELS 3 Zrotation Yrotation Xrotation
									JOINT RightHandIndex1
									{
										OFFSET -0.622530 -0.000000 -0.000000
										CHANNELS 3 Zrotation Yrotation Xrotation
										End Site
										{
											OFFSET 0.000000 0.000000 0.000000
										}
									}
								}
								JOINT RThumb
								{
									OFFSET 0.000000 0.000000 0.000000
									CHANNELS 3 Zrotation Yrotation Xrotation
									End Site
									{
										OFFSET 0.000000 0.000000 0.000000
									}
								}
							}
						}
					}
				}
			}
		}
	}
}
MOTION
Frames: 5
Frame Time: 0.008333
-3.043971 19.786294 -3.758665 4.090219 3.014115 3.466268 -10.235314 0.576561 3.487136 -1.290201 1.417454 -24.982457 1.915424 11.766306 31.036387 0.594093 9.780140 32.273968 0.286900 -3.444800 -9.519800 9.889100 -3.482287 5.225809 1.595545 13.699447 -12.269082 -0.270622 -7.689243 20.135388 13.298620 -29.502793 9.992501 -0.002000 -0.286000 0.785800 3.340218 3.429894 6.952002 0.058805 4.503234 -2.370984 -0.583933 2.744053 -2.718805 -3.535602 -1.191859 -13.679938 3.949247 -1.337915 5.629772 2.301700 -0.410100 3.462800 -5.101269 -3.778056 0.114432 -39.503888 2.815933 -11.073277 75.577451 -60.351907 -69.871305 -0.310624 -5.328026 -15.860911 30.016607 6.733210 7.544900 -7.125000 0.000000 0.000000 4.429300 44.273400 -0.079600 4.764109 4.923220 1.324858 38.239933 13.595614 0.508739 -131.320795 51.952584 -103.562194 -1.156366 3.129469 -51.519143 -13.781998 9.830998 -1.900100 7.125000 0.000000 0.000000 8.222700 -22.896600 4.419900 
-2.985186 19.781608 -3.717771 3.931340 3.296325 3.561969 -10.588890 0.788780 3.803893 -0.999609 1.269197 -24.128214 1.476107 11.188396 29.073908 0.316170 11.071196 32.985546 0.264000 -3.305700 -9.131000 9.961266 -3.525439 5.232034 1.508040 13.668554 -12.161260 -0.241823 -7.715083 20.081246 13.308302 -29.500772 9.837486 -0.001400 -0.245100 0.673300 3.269765 3.267660 6.270726 0.076645 4.279557 -2.430779 -0.444067 2.603422 -2.698289 -3.483604 -1.259938 -13.670574 4.153822 -1.477946 6.170279 2.129500 -0.464400 3.378200 -5.092167 -3.812499 0.004727 -38.896428 2.187354 -10.912891 77.489268 -61.065895 -71.438700 -0.275979 -5.248467 -16.189383 29.838755 6.459942 7.272200 -7.125000 0.000000 0.000000 4.243700 43.836300 -0.122100 4.767542 4.870906 1.212565 37.682565 12.111562 1.478598 -129.629157 53.235153 -102.548789 -1.120197 3.175379 -50.535277 -13.673356 10.075613 -1.946000 7.125000 0.000000 0.000000 8.286300 -22.681300 4.496000 
-2.922247 19.777242 -3.682308 3.580020 3.618026 3.667746 -10.898684 1.022620 4.093262 -0.542885 1.024922 -23.314451 1.117807 10.651148 27.174509 -0.016703 12.558016 33.817414 0.283300 -3.423400 -9.459900 10.060146 -3.552182 5.229168 1.602627 13.555530 -12.121311 -0.214839 -7.740428 20.046383 13.373798 -29.597161 9.649212 0.000000 -0.038300 0.105200 3.468401 3.068836 5.659002 0.097115 4.039720 -2.517260 -0.436877 2.453542 -2.824024 -3.489264 -1.291125 -13.364599 4.311395 -1.554347 6.350338 2.187700 -0.498400 3.425400 -5.085732 -3.846576 -0.104191 -38.258852 1.552767 -10.855002 79.479779 -61.764047 -72.988219 -0.226171 -5.163772 -16.775258 29.646173 6.212194 7.008800 -7.125000 0.000000 0.000000 4.049000 43.416900 -0.158500 4.770001 4.830336 1.111137 37.178232 10.615486 2.522974 -127.830555 54.506520 -101.476897 -1.081535 3.223649 -49.602647 -13.545757 10.259398 -1.973200 7.125000 0.000000 0.000000 8.362000 -22.527400 4.567700 
-2.857497 19.772769 -3.647484 3.192934 3.913627 3.735461 -11.186591 1.283481 4.374817 -0.060733 0.702400 -22.483819 0.829336 10.169035 25.426125 -0.402486 14.132998 34.550008 0.297100 -3.505000 -9.688000 10.148573 -3.587016 5.235237 1.740738 13.404325 -12.066463 -0.180519 -7.771955 20.035662 13.370332 -29.583517 9.497884 -0.000100 0.057100 -0.157000 3.697353 2.842187 5.068884 0.126148 3.763980 -2.562388 -0.417771 2.283887 -2.841707 -3.516816 -1.260608 -13.174726 4.498046 -1.543659 6.459827 2.271700 -0.484200 3.450600 -5.069539 -3.904786 -0.216064 -37.658907 0.858287 -11.029120 81.736823 -62.484455 -74.591628 -0.197619 -5.080854 -17.593393 30.006826 5.979160 6.918600 -7.125000 0.000000 0.000000 4.401900 43.094000 -0.207500 4.760840 4.810919 1.018874 36.722070 9.338035 3.548986 -125.811581 55.786885 -100.302511 -1.039557 3.278198 -48.622287 -13.236063 10.274158 -1.930100 7.125000 0.000000 0.000000 8.574200 -22.554000 4.680900 
-2.791257 19.764143 -3.612233 2.860193 4.151800 3.775660 -11.388132 1.510633 4.668251 0.318718 0.206699 -21.678412 0.478832 9.705215 24.054575 -0.630165 14.575238 33.868821 0.687700 -5.301600 -14.770800 10.205632 -3.629150 5.240274 1.846670 13.354227 -11.938587 -0.143635 -7.792133 20.020238 13.352777 -29.529201 9.330115 -0.000000 -0.008400 0.023000 3.828200 2.638404 4.513991 0.167277 3.508926 -2.606887 -0.339797 2.127240 -2.863756 -3.496985 -1.239382 -13.085567 4.616138 -1.546836 6.681895 2.305100 -0.481700 3.552200 -5.041577 -3.963497 -0.335578 -37.092244 0.146849 -11.280114 84.065097 -63.146714 -76.177679 -0.159916 -4.980052 -18.097548 30.135731 5.920152 6.849200 -7.125000 0.000000 0.000000 4.493500 42.923300 -0.230800 4.757668 4.798267 0.917041 36.258669 8.043640 4.590710 -123.581703 57.074368 -99.034899 -1.000579 3.339548 -47.449628 -12.816926 9.945540 -1.779900 7.125000 0.000000 0.000000 8.887500 -22.945500 4.775300 
